<?xml version="1.0" encoding="utf-8"?>
<!-- Generator: Adobe Illustrator 22.1.0, SVG Export Plug-In . SVG Version: 6.00 Build 0)  -->
<svg version="1.1" id="Layer_1" xmlns="http://www.w3.org/2000/svg" xmlns:xlink="http://www.w3.org/1999/xlink" x="0px" y="0px"
	 viewBox="0 0 640 112" style="enable-background:new 0 0 640 112;" xml:space="preserve">
<style type="text/css">
	.st0{fill:#B4B4B4;}
	.st1{fill:none;stroke:#29E7D6;stroke-width:0.9744;stroke-miterlimit:10;}
	.st2{fill:#FFFFFF;}
	.st3{fill:#29E7D6;}
	.st4{fill:url(#SVGID_1_);}
	.st5{fill:url(#SVGID_2_);}
	.st6{clip-path:url(#SVGID_4_);fill:#29E7D6;}
	.st7{fill:url(#SVGID_5_);}
	.st8{fill:url(#SVGID_6_);}
	.st9{clip-path:url(#SVGID_8_);fill:#29E7D6;}
</style>
<g>
	<g>
		<g>
			<path class="st2" d="M487.2,48.1l-1.2-2.9h-5.1l-1.2,2.9h-1.4l4.3-10.6h1.7l4.3,10.6H487.2z M485.5,43.9l-2.1-5.1l-2.1,5.1H485.5
				z"/>
			<path class="st2" d="M502.4,40.3c0,1.2-0.6,2-1.5,2.3c1,0.4,1.7,1.2,1.7,2.5c0,2.1-1.5,3-3.9,3h-4.3V37.5h4.1
				C500.7,37.5,502.4,38.3,502.4,40.3z M495.7,42.1h2.7c1.4,0,2.5-0.3,2.5-1.7c0-1.3-1.1-1.7-2.5-1.7h-2.7V42.1z M495.7,46.8h2.9
				c1.5,0,2.5-0.4,2.5-1.8c0-1.4-1-1.7-2.5-1.7h-2.9V46.8z"/>
			<path class="st2" d="M514.8,48.1V39l-3.5,8h-1.4l-3.5-7.9v9H505V37.5h2l3.5,7.9l3.5-7.9h2v10.6H514.8z"/>
			<path class="st2" d="M528.8,48.1l-2.8-8.8l-2.8,8.8h-1.6l-3.4-10.6h1.4l2.8,9.1l2.9-9.1h1.5l2.9,9.1l2.8-9.1h1.4l-3.4,10.6H528.8
				z"/>
			<path class="st2" d="M548.6,39.1l-1,0.9c-0.7-0.9-1.8-1.4-3.1-1.4c-2.3,0-4.1,1.7-4.1,4.2c0,2.5,1.8,4.2,4,4.2
				c2.2,0,3.5-1.2,3.7-3.3h-3.2v-1.2h4.6c0,0.1,0,0.2,0,0.3c0,3.1-1.9,5.5-5.2,5.5c-2.8,0-5.4-2-5.4-5.4c0-3.2,2.3-5.4,5.5-5.4
				C546.2,37.3,547.6,38,548.6,39.1z"/>
			<path class="st2" d="M559.9,40.5c0,1.8-1.4,3-3.7,3h-0.1l3.7,4.6h-1.6l-3.6-4.6h-1.2v4.6H552V37.5h4.2
				C558.6,37.5,559.9,38.6,559.9,40.5z M553.3,42.3h2.8c1.6,0,2.3-0.6,2.3-1.8c0-1.2-0.8-1.8-2.3-1.8h-2.8V42.3z"/>
			<path class="st2" d="M572.6,42.8c0,3.2-2.3,5.4-5.5,5.4c-3.2,0-5.5-2.3-5.5-5.4c0-3.2,2.3-5.4,5.5-5.4
				C570.3,37.3,572.6,39.6,572.6,42.8z M563,42.8c0,2.5,1.8,4.2,4.1,4.2s4.1-1.7,4.1-4.2c0-2.5-1.8-4.2-4.1-4.2S563,40.3,563,42.8z"
				/>
			<path class="st2" d="M579.2,48.2c-2.4,0-4.4-1.4-4.4-4.3v-6.4h1.3v6.3c0,2.2,1.3,3.1,3.1,3.1c1.8,0,3.1-0.9,3.1-3.1v-6.3h1.3v6.4
				C583.6,46.8,581.7,48.2,579.2,48.2z"/>
			<path class="st2" d="M587.8,48.1h-1.3V37.5h4c2.4,0,3.7,1.2,3.7,3.2c0,2-1.4,3.2-3.7,3.2h-2.7V48.1z M587.8,42.6h2.7
				c1.6,0,2.4-0.6,2.4-1.9c0-1.3-0.8-1.9-2.4-1.9h-2.7V42.6z"/>
			<path class="st2" d="M606.2,46.6c-0.8,0.9-1.7,1.6-3.2,1.6c-1.9,0-3.1-1-3.1-2.7c0-1.4,1-2.3,2-3.1c-1-1-1.5-1.7-1.5-2.7
				c0-1.3,1.1-2.4,2.7-2.4c1.6,0,2.7,1,2.7,2.4c0,1.2-1,2-2,2.8l2.3,2.2l1.6-2.4l1,0.6l-1.7,2.6l2.6,2.5h-1.8L606.2,46.6z
				 M605.3,45.7l-2.6-2.5c-0.9,0.6-1.5,1.3-1.5,2.2c0,0.9,0.7,1.6,1.8,1.6C604,47,604.6,46.6,605.3,45.7z M602.9,41.7
				c0.9-0.6,1.6-1.2,1.6-2c0-0.8-0.5-1.2-1.4-1.2c-0.8,0-1.4,0.5-1.4,1.3C601.7,40.4,602,40.8,602.9,41.7z"/>
			<path class="st2" d="M488.2,56.6l-1.1,0.7c-0.7-1-1.8-1.7-3.2-1.7c-2.3,0-4.1,1.7-4.1,4.2c0,2.5,1.8,4.2,4.1,4.2
				c1.4,0,2.5-0.6,3.2-1.7l1.1,0.8c-0.9,1.3-2.5,2.1-4.3,2.1c-3.2,0-5.5-2.3-5.5-5.4c0-3.2,2.3-5.4,5.5-5.4
				C485.7,54.4,487.3,55.2,488.2,56.6z"/>
			<path class="st2" d="M498.4,57.5c0,1.8-1.4,3-3.7,3h-0.1l3.7,4.6h-1.6l-3.6-4.6h-1.2v4.6h-1.3V54.5h4.2
				C497.1,54.5,498.4,55.6,498.4,57.5z M491.8,59.3h2.8c1.6,0,2.3-0.6,2.3-1.8c0-1.2-0.8-1.8-2.3-1.8h-2.8V59.3z"/>
			<path class="st2" d="M500.8,65.1V54.5h1.3v10.6H500.8z"/>
			<path class="st2" d="M508.8,55.8v9.3h-1.3v-9.3h-3.6v-1.3h8.5v1.3H508.8z"/>
			<path class="st2" d="M514.2,65.1V54.5h1.3v10.6H514.2z"/>
			<path class="st2" d="M527.8,56.6l-1.1,0.7c-0.7-1-1.8-1.7-3.2-1.7c-2.3,0-4.1,1.7-4.1,4.2c0,2.5,1.8,4.2,4.1,4.2
				c1.4,0,2.5-0.6,3.2-1.7l1.1,0.8c-0.9,1.3-2.5,2.1-4.3,2.1c-3.2,0-5.5-2.3-5.5-5.4c0-3.2,2.3-5.4,5.5-5.4
				C525.3,54.4,527,55.2,527.8,56.6z"/>
			<path class="st2" d="M537.7,65.1l-1.2-2.9h-5.1l-1.2,2.9h-1.4l4.3-10.6h1.7l4.3,10.6H537.7z M536.1,61l-2.1-5.1l-2.1,5.1H536.1z"
				/>
			<path class="st2" d="M540.9,65.1V54.5h1.3v9.3h6.1v1.3H540.9z"/>
			<path class="st2" d="M557.5,55.6c-1.5,0-2.7,0.7-2.7,1.8c0,1,0.8,1.4,2.4,1.6l0.9,0.1c1.8,0.2,3.3,0.9,3.3,2.8
				c0,2.1-1.9,3.2-4.2,3.2c-1.5,0-3.1-0.5-4.2-1.4l0.7-1.1c0.7,0.6,2.1,1.2,3.4,1.2c1.6,0,2.8-0.6,2.8-1.8c0-1-0.9-1.5-2.5-1.7
				l-1-0.1c-1.7-0.2-3.1-1-3.1-2.8c0-2,1.8-3.2,4-3.2c1.6,0,2.8,0.5,3.8,1.2l-0.7,1.1C559.8,56,558.8,55.6,557.5,55.6z"/>
			<path class="st2" d="M574.3,59.8c0,3.2-2.3,5.4-5.5,5.4c-3.2,0-5.5-2.3-5.5-5.4c0-3.2,2.3-5.4,5.5-5.4
				C572,54.4,574.3,56.7,574.3,59.8z M564.7,59.8c0,2.5,1.8,4.2,4.1,4.2c2.3,0,4.1-1.7,4.1-4.2c0-2.5-1.8-4.2-4.1-4.2
				C566.5,55.7,564.7,57.3,564.7,59.8z"/>
			<path class="st2" d="M578,60.4v4.7h-1.3V54.5h7.4v1.3h-6v3.4h5.7v1.3H578z"/>
			<path class="st2" d="M590.2,55.8v9.3h-1.3v-9.3h-3.6v-1.3h8.5v1.3H590.2z"/>
			<path class="st2" d="M605.2,65.1l-2.8-8.8l-2.8,8.8h-1.6l-3.4-10.6h1.4l2.8,9.1l2.9-9.1h1.5l2.9,9.1l2.8-9.1h1.4l-3.4,10.6H605.2
				z"/>
			<path class="st2" d="M619.1,65.1l-1.2-2.9h-5.1l-1.2,2.9h-1.4l4.3-10.6h1.7l4.3,10.6H619.1z M617.4,61l-2.1-5.1l-2.1,5.1H617.4z"
				/>
			<path class="st2" d="M630.1,57.5c0,1.8-1.4,3-3.7,3h-0.1l3.7,4.6h-1.6l-3.6-4.6h-1.2v4.6h-1.3V54.5h4.2
				C628.8,54.5,630.1,55.6,630.1,57.5z M623.6,59.3h2.8c1.6,0,2.3-0.6,2.3-1.8c0-1.2-0.8-1.8-2.3-1.8h-2.8V59.3z"/>
			<path class="st2" d="M632.5,65.1V54.5h7.4v1.2h-6.1v3.4h5.9v1.3h-5.9v3.5h6.2v1.2H632.5z"/>
			<path class="st2" d="M488.2,73.6l-1.1,0.7c-0.7-1-1.8-1.7-3.2-1.7c-2.3,0-4.1,1.7-4.1,4.2c0,2.5,1.8,4.2,4.1,4.2
				c1.4,0,2.5-0.6,3.2-1.7l1.1,0.8c-0.9,1.3-2.5,2.1-4.3,2.1c-3.2,0-5.5-2.3-5.5-5.4c0-3.2,2.3-5.4,5.5-5.4
				C485.7,71.4,487.3,72.3,488.2,73.6z"/>
			<path class="st2" d="M500.7,76.9c0,3.2-2.3,5.4-5.5,5.4s-5.5-2.3-5.5-5.4c0-3.2,2.3-5.4,5.5-5.4S500.7,73.7,500.7,76.9z
				 M491.1,76.9c0,2.5,1.8,4.2,4.1,4.2c2.3,0,4.1-1.7,4.1-4.2c0-2.5-1.8-4.2-4.1-4.2C492.9,72.7,491.1,74.4,491.1,76.9z"/>
			<path class="st2" d="M512.9,82.2v-9.1l-3.5,8H508l-3.5-7.9v9h-1.3V71.6h2l3.5,7.9l3.5-7.9h2v10.6H512.9z"/>
			<path class="st2" d="M518.6,82.2h-1.3V71.6h4c2.4,0,3.7,1.2,3.7,3.2c0,2-1.4,3.2-3.7,3.2h-2.7V82.2z M518.6,76.7h2.7
				c1.6,0,2.4-0.6,2.4-1.9c0-1.3-0.8-1.9-2.4-1.9h-2.7V76.7z"/>
			<path class="st2" d="M534.2,82.2l-1.2-2.9h-5.1l-1.2,2.9h-1.4l4.3-10.6h1.7l4.3,10.6H534.2z M532.5,78l-2.1-5.1l-2.1,5.1H532.5z"
				/>
			<path class="st2" d="M545.1,82.2l-6.4-8.3l0,8.3h-1.3V71.6h1.2l6.4,8.3v-8.3h1.3v10.6H545.1z"/>
			<path class="st2" d="M553.4,82.2h-1.3v-4.4l-4.2-6.2h1.6l3.2,4.9l3.2-4.9h1.5l-4.1,6.2V82.2z"/>
		</g>
	</g>
	<line class="st1" x1="443.8" y1="23.4" x2="443.8" y2="96.3"/>
	<g>
		<path class="st2" d="M218.1,29.4C218.1,29.4,218,29.4,218.1,29.4c-4.1-0.3-7.1,2.2-7.1,6.4v12.4h-6.6V23.4l7,0
			c0.1,1.2-0.1,2.5-0.6,3.6c0,0,0-0.1,0.1-0.1c0.4-0.7,0.8-1.3,1.4-1.9c0,0,0,0,0,0c0.1-0.1,0.1-0.1,0.2-0.2c0.4-0.4,0.9-0.7,1.5-1
			c0,0,0,0,0,0c0,0,0.1,0,0.1-0.1c0,0,0.1,0,0.1-0.1l0,0c1.6-0.7,3.6-0.8,6-0.2l-0.8,6.2c-0.1,0-0.2,0-0.4-0.1c0,0-0.1,0-0.1,0
			c-0.1,0-0.2,0-0.3,0c0,0-0.1,0-0.1,0C218.3,29.4,218.2,29.4,218.1,29.4z"/>
	</g>
	<g>
		<rect x="258.7" y="23.4" class="st2" width="6.6" height="24.9"/>
	</g>
	<g>
		<rect x="258.7" y="14.2" class="st2" width="6.6" height="5"/>
	</g>
	<g>
		<rect x="225.1" y="14.2" class="st2" width="6.6" height="5"/>
	</g>
	<g>
		<rect x="331.1" y="14.2" class="st2" width="6.6" height="34"/>
	</g>
	<g>
		<path class="st2" d="M252.6,29.1v-5.7h-8.2v-9.2h-6.6v23.5c0,3.5,0.6,5.7,1.8,7.4c1.7,2.2,4.6,3.6,8.6,3.6c1.3,0,3.4-0.2,4.3-0.5
			l-1.3-5.5c-0.5,0.1-1.6,0.2-2.5,0.2c-1.6,0-2.7-0.5-3.4-1.2c-0.6-0.7-0.8-1.6-0.8-3.1v-9.3H252.6z"/>
	</g>
	<g>
		<path class="st2" d="M317.6,23.4v1.4c-1.9-1.2-4.2-1.8-6.6-1.8c-7.1,0-12.8,5.7-12.8,12.8c0,7.1,5.7,12.8,12.8,12.8
			c2.4,0,4.7-0.7,6.6-1.8v1.4h6.6V23.4H317.6z M311,42.5c-3.7,0-6.7-3-6.7-6.7c0-3.7,3-6.7,6.7-6.7c3.7,0,6.7,3,6.7,6.7
			C317.7,39.5,314.7,42.5,311,42.5z"/>
	</g>
	<g>
		<path class="st2" d="M289.4,39.7c-1.2,1.7-3.2,2.8-5.4,2.8c-3.7,0-6.7-3-6.7-6.7c0-3.7,3-6.7,6.7-6.7c2.2,0,4.2,1.1,5.4,2.8l5-3.6
			C292,25.1,288.3,23,284,23c-7.1,0-12.8,5.7-12.8,12.8s5.7,12.8,12.8,12.8c4.3,0,8-2.1,10.4-5.3L289.4,39.7z"/>
	</g>
	<g>
		<rect x="225.1" y="23.4" class="st2" width="6.6" height="24.9"/>
	</g>
	<g>
		<path class="st2" d="M193.2,37.5c-2,2.7-5.1,4.4-8.7,4.4c-5.9,0-10.8-4.8-10.8-10.8s4.8-10.8,10.8-10.8c3.6,0,6.8,1.8,8.7,4.4
			l5.4-3.9c-3.2-4.3-8.3-7.2-14.1-7.2c-9.6,0-17.4,7.8-17.4,17.4s7.8,17.4,17.4,17.4c5.8,0,10.9-2.8,14.1-7.2L193.2,37.5z"/>
	</g>
	<path class="st3" d="M214.8,83.6c0-6.8-4.8-12.6-11.6-12.6c-7.3,0-12,6-12,12.8c0,7.7,5.5,12.8,12.9,12.8c3.8,0,7.7-1.6,10.1-4.4
		l-3.8-3.8c-1.2,1.3-3.4,2.8-6.2,2.8c-3.5,0-6.3-2.4-6.6-5.8h17C214.8,84.9,214.8,84.3,214.8,83.6z M197.9,80.7
		c0.3-2.2,2.5-4.3,5.3-4.3c2.7,0,4.7,2.1,4.9,4.3H197.9z"/>
	<path class="st3" d="M236.9,87.8c-1.2,1.7-3.2,2.8-5.4,2.8c-3.7,0-6.7-3-6.7-6.7s3-6.7,6.7-6.7c2.2,0,4.2,1.1,5.4,2.8l5-3.6
		c-2.3-3.2-6.1-5.3-10.4-5.3c-7.1,0-12.8,5.7-12.8,12.8s5.7,12.8,12.8,12.8c4.3,0,8-2.1,10.4-5.3L236.9,87.8z"/>
	<path class="st3" d="M267.2,74.9c-2-2.4-5-3.9-8.4-3.9c-2.5,0-4.7,0.8-6.5,2.2v-11h-6.6v34h6.6V79.9c1-1.2,3.1-2.7,5.7-2.7
		c1.5,0,2.8,0.5,3.6,1.3c0.9,0.9,1.4,2.1,1.4,4.5v13.2h6.6V83.4C269.7,79.2,268.8,76.8,267.2,74.9z"/>
	<polygon class="st3" points="167.1,62.3 167.1,68.9 176.3,68.9 176.3,96.3 183,96.3 183,68.9 195.1,68.9 192.2,62.3 	"/>
	<polygon class="st3" points="305,71.4 299,85.6 297,81 293.6,73.4 292.7,71.4 286,71.4 290.3,81 287.1,88.7 275.3,62.3 268.7,62.3 
		283.9,96.3 290.5,96.3 293.7,88.7 297.1,96.3 301.1,96.3 311.7,71.4 	"/>
	<path class="st3" d="M357.2,77.5c0,0,0.1,0,0.1,0c0.1,0,0.2,0,0.3,0c0,0,0.1,0,0.1,0c0.1,0,0.2,0,0.4,0.1l0.8-6.2
		c-2.4-0.6-4.4-0.5-6,0.2l0,0c0,0-0.1,0-0.1,0.1c0,0-0.1,0-0.1,0.1c0,0,0,0,0,0c-0.5,0.3-1,0.6-1.5,1c-0.1,0.1-0.1,0.1-0.2,0.2
		c0,0,0,0,0,0c-0.6,0.5-1,1.2-1.4,1.9c0,0-0.1,0.1-0.1,0.1c0.4-1,0.7-2.4,0.6-3.6l-7,0v24.9h6.6V83.8c0-4.2,3-6.7,7.1-6.4
		c0,0,0,0,0,0C356.9,77.5,357,77.5,357.2,77.5z"/>
	<path class="st3" d="M325.4,71c-7.1,0-12.8,5.7-12.8,12.8c0,7.1,5.7,12.8,12.8,12.8c7.1,0,12.8-5.7,12.8-12.8
		C338.2,76.8,332.5,71,325.4,71z M325.4,90.6c-3.7,0-6.7-3-6.7-6.7c0-3.7,3-6.7,6.7-6.7c3.7,0,6.7,3,6.7,6.7
		C332.1,87.6,329.1,90.6,325.4,90.6z"/>
	<g>
		<path class="st3" d="M392.8,88.7c1.7,1.5,4.3,2.4,6.7,2.4c1.8,0,3.1-0.9,3.1-2.1c0-3.7-11.9-2.4-11.9-10.3c0-4.7,4.6-7.7,9.4-7.7
			c3.2,0,6.7,1.2,8.3,2.5l-3.1,4.8c-1.3-0.9-2.9-1.7-4.7-1.7c-1.8,0-3.3,0.7-3.3,2c0,3.2,11.9,1.9,11.9,10.5c0,4.7-4.6,7.6-9.8,7.6
			c-3.4,0-7-1.2-9.9-3.3L392.8,88.7z"/>
	</g>
	<polygon class="st3" points="376,83 387.6,71.4 378.9,71.4 372,78.3 369.5,80.9 369.5,62.3 362.8,62.3 362.8,96.3 369.5,96.3 
		369.5,85.3 379.5,96.3 388.1,96.3 	"/>
	<linearGradient id="SVGID_1_" gradientUnits="userSpaceOnUse" x1="66.2668" y1="109.3708" x2="66.2869" y2="109.3708">
		<stop  offset="0.1" style="stop-color:#29E7D6"/>
		<stop  offset="1" style="stop-color:#000078"/>
	</linearGradient>
	<path class="st4" d="M66.3,109.4C66.3,109.4,66.3,109.4,66.3,109.4L66.3,109.4C66.3,109.4,66.3,109.4,66.3,109.4z"/>
	<linearGradient id="SVGID_2_" gradientUnits="userSpaceOnUse" x1="22.0958" y1="55.2395" x2="132.5746" y2="55.2395">
		<stop  offset="0.1" style="stop-color:#29E7D6"/>
		<stop  offset="1" style="stop-color:#000078"/>
	</linearGradient>
	<path class="st5" d="M77.3,0c-3.8,0-7.5,0.4-11,1.1c25.2,5.1,44.2,27.4,44.2,54.1c0,18.3-14.8,33.1-33.1,33.1c-0.3,0-0.5,0-0.8,0
		c-0.1,0-0.2,0-0.3,0c-0.2,0-0.3,0-0.5,0c-0.1,0-0.2,0-0.4,0c-0.1,0-0.3,0-0.4,0c-0.1,0-0.3,0-0.4,0c-0.1,0-0.2,0-0.3,0
		c-0.2,0-0.3,0-0.5-0.1c0,0-0.1,0-0.1,0c-16.6-1.8-29.5-15.9-29.5-32.9c0-14.4,9.2-26.7,22.1-31.3c-3.5-1.2-7.2-1.9-11-1.9
		c-18.3,0-33.1,14.8-33.1,33.1c0,0.4,0,0.9,0,1.3c0,0.1,0,0.3,0,0.4c0,0.3,0,0.6,0,0.9c0,0.2,0,0.3,0,0.5c0,0.3,0,0.5,0.1,0.8
		c0,0.2,0,0.4,0,0.5c0,0.3,0,0.5,0.1,0.8c0,0.2,0,0.4,0.1,0.5c0,0.3,0.1,0.5,0.1,0.8c0,0.2,0,0.3,0.1,0.5c0,0.3,0.1,0.6,0.1,0.9
		c0,0.1,0,0.3,0.1,0.4c0.1,0.4,0.1,0.8,0.2,1.2c0,0,0,0.1,0,0.1c0.1,0.4,0.2,0.9,0.2,1.3c0,0.1,0.1,0.3,0.1,0.4
		c0.1,0.3,0.1,0.6,0.2,0.9c0,0.2,0.1,0.3,0.1,0.5c0.1,0.3,0.1,0.5,0.2,0.8c0,0.2,0.1,0.3,0.1,0.5c0.1,0.2,0.1,0.5,0.2,0.7
		c0,0.2,0.1,0.3,0.1,0.5c0.1,0.2,0.1,0.5,0.2,0.7c0,0.2,0.1,0.3,0.1,0.5c0.1,0.3,0.2,0.5,0.3,0.8c0,0.1,0.1,0.3,0.1,0.4
		c0.1,0.3,0.2,0.7,0.4,1c0,0.1,0,0.1,0.1,0.2c0.1,0.4,0.3,0.8,0.4,1.2c0.1,0.1,0.1,0.3,0.2,0.4c0.1,0.3,0.2,0.5,0.3,0.8
		c0.1,0.2,0.1,0.3,0.2,0.5c0.1,0.2,0.2,0.5,0.3,0.7c0.1,0.2,0.1,0.3,0.2,0.5c0.1,0.2,0.2,0.4,0.3,0.7c0.1,0.2,0.2,0.3,0.2,0.5
		c0.1,0.2,0.2,0.4,0.3,0.7c0.1,0.2,0.2,0.3,0.2,0.5c0.1,0.2,0.2,0.5,0.4,0.7c0.1,0.1,0.2,0.3,0.2,0.4c0.2,0.3,0.3,0.6,0.5,0.8
		c0,0.1,0.1,0.2,0.1,0.3c0.2,0.4,0.4,0.7,0.6,1.1c0.1,0.1,0.2,0.3,0.2,0.4c0.1,0.2,0.3,0.4,0.4,0.7c0.1,0.2,0.2,0.3,0.3,0.5
		c0.1,0.2,0.3,0.4,0.4,0.6c0.1,0.2,0.2,0.3,0.3,0.5c0.1,0.2,0.3,0.4,0.4,0.6c0.1,0.2,0.2,0.3,0.3,0.5c0.1,0.2,0.3,0.4,0.4,0.6
		c0.1,0.2,0.2,0.3,0.3,0.5c0.1,0.2,0.3,0.4,0.4,0.6c0.1,0.1,0.2,0.3,0.3,0.4c0.2,0.2,0.3,0.4,0.5,0.6c0.1,0.1,0.2,0.2,0.3,0.3
		c0.3,0.3,0.5,0.6,0.8,0.9c0.1,0.1,0.2,0.3,0.3,0.4c0.2,0.2,0.3,0.4,0.5,0.5c0.1,0.1,0.3,0.3,0.4,0.4c0.2,0.2,0.3,0.3,0.5,0.5
		c0.1,0.1,0.3,0.3,0.4,0.4c0.2,0.2,0.3,0.3,0.5,0.5c0.1,0.1,0.3,0.3,0.4,0.4c0.2,0.2,0.3,0.3,0.5,0.5c0.1,0.1,0.3,0.3,0.4,0.4
		c0.2,0.2,0.3,0.3,0.5,0.4c0.1,0.1,0.3,0.3,0.4,0.4c0.2,0.2,0.4,0.3,0.5,0.5c0.2,0.1,0.3,0.3,0.5,0.4c0.3,0.2,0.5,0.5,0.8,0.7
		c0.2,0.1,0.3,0.2,0.5,0.4c0.2,0.1,0.3,0.3,0.5,0.4c0.2,0.1,0.3,0.3,0.5,0.4c0.2,0.1,0.3,0.3,0.5,0.4c0.2,0.1,0.3,0.3,0.5,0.4
		c0.2,0.1,0.3,0.2,0.5,0.4c0.2,0.1,0.3,0.2,0.5,0.4c0.2,0.1,0.3,0.2,0.5,0.3c0.2,0.1,0.4,0.2,0.5,0.4c0.2,0.1,0.3,0.2,0.5,0.3
		c0.2,0.1,0.4,0.2,0.5,0.3c0.2,0.1,0.4,0.2,0.5,0.3c0.3,0.2,0.6,0.4,0.9,0.5c0.2,0.1,0.5,0.3,0.7,0.4c0.2,0.1,0.4,0.2,0.6,0.3
		c0.2,0.1,0.4,0.2,0.5,0.3c0.2,0.1,0.4,0.2,0.6,0.3c0.2,0.1,0.4,0.2,0.5,0.3c0.2,0.1,0.4,0.2,0.6,0.3c0.2,0.1,0.4,0.2,0.5,0.3
		c0.2,0.1,0.4,0.2,0.6,0.3c0.2,0.1,0.4,0.2,0.5,0.2c0.2,0.1,0.4,0.2,0.6,0.3c0.2,0.1,0.4,0.2,0.5,0.2c0.2,0.1,0.4,0.2,0.6,0.3
		c0.2,0.1,0.4,0.2,0.6,0.2c0.4,0.2,0.9,0.3,1.3,0.5c0.1,0,0.3,0.1,0.4,0.1c0.2,0.1,0.4,0.2,0.6,0.2c0.2,0.1,0.4,0.1,0.6,0.2
		c0.2,0.1,0.4,0.1,0.6,0.2c0.2,0.1,0.4,0.1,0.6,0.2c0.2,0.1,0.4,0.1,0.7,0.2c0.2,0.1,0.4,0.1,0.6,0.2c0.2,0.1,0.4,0.1,0.7,0.2
		c0.2,0.1,0.4,0.1,0.6,0.2c0.2,0.1,0.4,0.1,0.7,0.2c0.2,0,0.4,0.1,0.6,0.1c0.2,0.1,0.4,0.1,0.7,0.2c0.2,0,0.4,0.1,0.6,0.1
		c0.2,0,0.4,0.1,0.7,0.1c0.2,0,0.5-0.1,0.7-0.1c-0.2,0-0.5,0.1-0.7,0.1c3.6,0.7,7.3,1.1,11,1.1c30.5,0,55.2-24.7,55.2-55.2
		S107.8,0,77.3,0z"/>
	<g>
		<defs>
			<path id="SVGID_7_" d="M66.3,109.4C41.1,104.3,22.1,82,22.1,55.2c0-18.3,14.8-33.1,33.1-33.1c18.3,0,33.1,14.8,33.1,33.1
				c0,14.4-9.2,26.7-22.1,31.3c3.5,1.2,7.2,1.9,11,1.9c18.3,0,33.1-14.8,33.1-33.1c0,0,0,0,0,0c0,0,0,0,0,0
				C110.5,24.7,85.7,0,55.2,0C24.7,0,0,24.7,0,55.2s24.7,55.2,55.2,55.2c4,0,7.9-0.4,11.7-1.3C66.7,109.3,66.5,109.3,66.3,109.4z"/>
		</defs>
		<clipPath id="SVGID_4_">
			<use xlink:href="#SVGID_7_"  style="overflow:visible;"/>
		</clipPath>
		<path class="st6" d="M48.1,11.7L33.3,0l1-1.2l15.8,12.5L43.4,26L42,25.3L48.1,11.7z M55.3,22.5l1,1.2l12.1-10.7L59.1-4.9l-1.4,0.7
			l8.8,16.7L55.3,22.5z M13,42.5L22.5,54l1.2-1L13.4,40.6l-18.1,8.7l0.7,1.4L13,42.5z M46.3,23.8l1.3,0.8L56.2,11L42.4-3.6l-1.1,1.1
			l13,13.7L46.3,23.8z M50.7,22.8l1.2,1l10.5-12.3L50.7-4.8l-1.3,0.9l11,15.3L50.7,22.8z M37.9,27.4l1.5,0.4L44,12.4L26.6,2.2
			l-0.8,1.3l16.3,9.5L37.9,27.4z M18.1,31.4l6,13.7l1.4-0.6l-6.5-14.8L-0.7,33l0.3,1.5L18.1,31.4z M15.2,36.8L23,49.5l1.3-0.8
			l-8.5-13.7L-3.3,41l0.5,1.5L15.2,36.8z M30.9,33.3l1.6,0l0.1-16.1l-19.5-5l-0.4,1.5L31,18.4L30.9,33.3z M28.1,36.9l1.5-0.2
			l-2.1-16l-20-2.2L7.4,20l18.8,2.1L28.1,36.9z M21.8,26.5l4,14.4l1.5-0.4L23,24.9L2.9,25.5L3,27L21.8,26.5z M76.4,31.8l16.1-0.5
			l4.3-19.6l-1.5-0.3l-4,18.4l-14.9,0.4L76.4,31.8z M79.6,33.4l-0.2,1.5l16,1.8l7-18.8l-1.5-0.5L94.4,35L79.6,33.4z M82.4,37
			L82,38.5l15.6,4l9.5-17.7l-1.4-0.7l-9,16.6L82.4,37z M84.7,40.9l-0.6,1.4L99,48.5l11.9-16.2l-1.3-0.9L98.5,46.6L84.7,40.9z
			 M59.8,22.8l0.9,1.3l13.4-8.9L67.4-3.7l-1.5,0.5l6.3,17.8L59.8,22.8z M98.3,65L88,54.1l-1.1,1.1L98,66.9l17.5-9.9l-0.8-1.4
			L98.3,65z M86.4,45.2l-0.8,1.3l13.9,8.2l14-14.4l-1.1-1.1L99.3,52.7L86.4,45.2z M64.3,23.8l0.7,1.4l14.6-7L75.5-1.5L74-1.2
			l3.8,18.5L64.3,23.8z M87.5,49.6l-1,1.2l12.7,10l15.9-12.3l-1-1.2L99.2,58.9L87.5,49.6z M68.6,25.4l0.5,1.5l15.4-4.9l-1.3-20
			L81.6,2l1.2,18.8L68.6,25.4z M72.9,29l15.9-2.7l1.5-20l-1.6-0.1L87.3,25l-14.7,2.5L72.9,29z M34.2,30.1l1.5,0.2l2.3-16L19.5,6.7
			L19,8.2l17.5,7.2L34.2,30.1z M74.4,81.8l-1.5-0.3l-3.5,15.8l18,8.9l0.7-1.4l-16.9-8.4L74.4,81.8z M70.6,84.2l-1.5-0.5l-5.6,15.1
			l16.6,11.3l0.9-1.3L65.4,98.2L70.6,84.2z M77.9,78.8l-1.6-0.1l-1.2,16.1l19.1,6.3l0.5-1.5l-17.9-5.9L77.9,78.8z M62,87.3l-1.3-0.9
			l-9.6,13L64,114.8l1.2-1l-12-14.5L62,87.3z M66.4,86L65,85.3l-7.7,14.2L72.2,113l1.1-1.2L59.3,99.2L66.4,86z M90.6,81.6l-5-14.1
			l-1.5,0.5l5.4,15.2l20-2l-0.2-1.6L90.6,81.6z M93.9,76.4L87,63.2l-1.4,0.7l7.5,14.3l19.5-4.7l-0.4-1.5L93.9,76.4z M96.5,70.8
			l-8.7-12.1l-1.3,0.9l9.4,13.1l18.7-7.4l-0.6-1.4L96.5,70.8z M81,75.4l-1.6,0.1l1,16.1l19.8,3.6l0.3-1.5L82,90.3L81,75.4z
			 M83.6,71.7L82,72l3.3,15.8l20.1,0.8l0.1-1.6l-18.9-0.8L83.6,71.7z M57.5,87.9l-1.1-1.1L45.1,98.4l10.5,17.1l1.3-0.8L47,98.6
			L57.5,87.9z M52.9,87.9l-1-1.2l-12.8,9.9l8.1,18.4l1.4-0.6L41.1,97L52.9,87.9z M26.9,71.6l0.5-1.5L12,65L1.3,82l1.3,0.8l10.1-15.9
			L26.9,71.6z M22.7,58.6l1.1-1.2L11.8,46.6L-4.9,57.7l0.9,1.3l15.7-10.5L22.7,58.6z M29.4,75.4l0.3-1.5l-15.9-2.9L5.5,89.2l1.4,0.6
			l7.8-17.2L29.4,75.4z M24.9,67.5l0.7-1.4l-14.5-7.2l-13,15.3l1.2,1l12.2-14.4L24.9,67.5z M23.5,63.1l0.9-1.3L11,52.7L-4,66.1
			l1,1.2l14.1-12.5L23.5,63.1z M32.5,78.8l0.1-1.6l-16.1-0.7l-5.7,19.3l1.5,0.4l5.3-18.1L32.5,78.8z M44,86l-0.6-1.4l-15,6l2.7,19.9
			l1.5-0.2l-2.5-18.7L44,86z M48.4,87.3l-0.8-1.4l-14,8l5.4,19.3l1.5-0.4l-5.1-18.2L48.4,87.3z M39.5,82.6l-15.7,3.8l-0.1,20.1
			l1.6,0l0.1-18.9l14.5-3.5L39.5,82.6z M35.8,80.1l-16.1,1.6l-2.9,19.9l1.5,0.2l2.7-18.7L36,81.7L35.8,80.1z"/>
	</g>
</g>
</svg>
