<svg width="50" height="50" viewBox="0 0 50 50" version="1.1" xmlns="http://www.w3.org/2000/svg" xmlns:xlink="http://www.w3.org/1999/xlink">
<title>logo-normal</title>
<desc>Created using Figma</desc>
<g id="Canvas" transform="translate(-9734 1479)">
<clipPath id="clip-0" clip-rule="evenodd">
<path d="M 9734 -1479L 9784 -1479L 9784 -1429L 9734 -1429L 9734 -1479Z" fill="#FFFFFF"/>
</clipPath>
<g id="logo-normal" clip-path="url(#clip-0)">
<g id="Group">
<g id="Group">
<g id="path0 fill 1">
<use xlink:href="#path0_fill" transform="translate(9751.92 -1479)" fill="#04AFDB"/>
</g>
<g id="path1 fill 1">
<use xlink:href="#path1_fill" transform="translate(9738 -1478.74)" fill="#04AFDB"/>
</g>
<g id="path2 fill 1">
<use xlink:href="#path2_fill" transform="translate(9769.26 -1474.21)" fill="#04AFDB"/>
</g>
</g>
<g id="Group">
<g id="Vector">
<use xlink:href="#path3_fill" transform="translate(9765.88 -1445.42)" fill="#374756"/>
</g>
<g id="Vector">
<use xlink:href="#path4_fill" transform="translate(9746.84 -1441.57)" fill="#374756"/>
</g>
<g id="Vector">
<use xlink:href="#path5_fill" transform="translate(9753.01 -1445.45)" fill="#374756"/>
</g>
<g id="Group">
<g id="path8 fill 1">
<use xlink:href="#path6_fill" transform="translate(9778.8 -1445.1)" fill="#374756"/>
</g>
<g id="Vector">
<use xlink:href="#path7_fill" transform="translate(9780.22 -1450.27)" fill="#374756"/>
</g>
</g>
<g id="Vector">
<use xlink:href="#path8_fill" transform="translate(9734 -1445.41)" fill="#374756"/>
</g>
</g>
</g>
</g>
</g>
<defs>
<path id="path0_fill" d="M 15.4491 0.321782L 0.576277 0L 0 32.1782L 5.50529 26.6832L 16.4914 25.4579L 15.4491 0.321782Z"/>
<path id="path1_fill" d="M 12.1159 -1.18029e-08L 12.9497 25.6188C 9.54105 26.25 2.22109 25.1733 0.271559 15.7921C -1.67798 6.41089 7.34629 1.34901 12.1159 -1.18029e-08Z"/>
<path id="path2_fill" d="M 0 9.44232e-08L 0.282007 20.2351C 3.69063 20.8663 10.9002 20.297 12.4329 12.9579C 13.9655 5.61881 4.78188 1.26238 0 9.44232e-08Z"/>
<path id="path3_fill" d="M 5.79956 -1.51077e-06C 2.59938 -1.51077e-06 -7.48366e-07 2.62376 -7.48366e-07 5.85396C -7.48366e-07 9.08416 2.59938 11.7079 5.79956 11.7079C 8.99974 11.7079 11.5991 9.08416 11.5991 5.85396C 11.5991 2.62376 8.99974 -1.51077e-06 5.79956 -1.51077e-06ZM 5.79956 8.75C 4.21786 8.75 2.93043 7.4505 2.93043 5.85396C 2.93043 4.25743 4.21786 2.95792 5.79956 2.95792C 7.38126 2.95792 8.66869 4.25743 8.66869 5.85396C 8.66869 7.4505 7.38126 8.75 5.79956 8.75Z"/>
<path id="path4_fill" d="M 4.94128 0L 0 0L 0 2.92079L 4.94128 2.92079L 4.94128 0Z"/>
<path id="path5_fill" d="M 8.28859 0.346534L 8.28859 0.581682C 8.22728 0.556929 8.16598 0.53218 8.10467 0.507427C 8.05563 0.482675 8.00658 0.470299 7.95754 0.445546C 7.84719 0.396041 7.73684 0.358912 7.62649 0.321784C 7.50387 0.284655 7.38126 0.247523 7.24639 0.210395C 7.18508 0.198018 7.11151 0.173267 7.05021 0.16089C 6.92759 0.136138 6.79272 0.111385 6.65785 0.0866321C 6.36358 0.0371272 6.05705 0.012377 5.71373 7.55386e-07C 4.89223 0.012377 4.13203 0.16089 3.42088 0.457919C 2.72199 0.754949 2.12119 1.17574 1.61848 1.69554C 1.11577 2.21534 0.723413 2.82178 0.441404 3.51485C 0.232963 4.03465 0.0980902 4.59158 0.0490453 5.17327C 0.0245228 5.40842 -7.48366e-07 5.63119 -7.48366e-07 5.86634C -7.48366e-07 9.09653 2.59938 11.7203 5.79956 11.7203C 6.68237 11.7203 7.52839 11.5099 8.27633 11.151C 8.26407 11.5718 8.1905 11.9307 8.08015 12.2277C 7.94528 12.5743 7.76136 12.8465 7.51613 13.0446C 7.28317 13.255 7.00116 13.4035 6.67011 13.4901C 6.35132 13.5767 5.99574 13.6139 5.61564 13.6139C 4.91675 13.6139 4.27917 13.5149 3.70289 13.3292C 3.12661 13.1559 2.59938 12.9084 2.10893 12.5866L 0.784719 14.9752C 1.4223 15.4208 2.14572 15.7797 2.96722 16.052C 3.78872 16.3119 4.68379 16.448 5.65243 16.448C 6.43715 16.448 7.17282 16.3366 7.88397 16.1139C 8.59512 15.9035 9.20818 15.5693 9.74768 15.1114C 10.2872 14.6658 10.7163 14.0965 11.0351 13.4158C 11.3539 12.7351 11.5133 11.9307 11.5133 10.9901L 11.5133 0.334157L 8.28859 0.334157L 8.28859 0.346534ZM 5.79956 8.77475C 4.21786 8.77475 2.93043 7.47525 2.93043 5.87871C 2.93043 4.28218 4.21786 2.98267 5.79956 2.98267C 7.38126 2.98267 8.66869 4.28218 8.66869 5.87871C 8.66869 7.47525 7.38126 8.77475 5.79956 8.77475Z"/>
<path id="path6_fill" d="M -1.49673e-06 -7.55386e-07L 4.94128 -7.55386e-07L 4.94128 8.18069L 4.95354 8.18069L 4.95354 11.1262L 1.64301 11.1262L 1.64301 8.18069L 1.65526 8.18069L 1.65526 2.94555L -1.49673e-06 2.94555L -1.49673e-06 -7.55386e-07L -1.49673e-06 -7.55386e-07Z"/>
<path id="path7_fill" d="M -7.48366e-07 1.90594C -7.48366e-07 1.64604 0.0490449 1.39851 0.134874 1.16337C 0.232963 0.928218 0.367835 0.717823 0.539493 0.556931C 0.71115 0.383664 0.907333 0.247525 1.1403 0.148515C 1.37326 0.0495053 1.63074 7.55386e-07 1.90049 7.55386e-07C 2.15798 7.55386e-07 2.39094 0.0495053 2.6239 0.148515C 2.85687 0.247525 3.05305 0.383664 3.2247 0.556931C 3.39636 0.730199 3.53123 0.928218 3.62932 1.16337C 3.72741 1.39851 3.77646 1.63366 3.77646 1.90594C 3.77646 2.16584 3.72741 2.42574 3.62932 2.66089C 3.53123 2.89604 3.39636 3.09406 3.2247 3.26733C 3.05305 3.44059 2.85687 3.57673 2.6239 3.67574C 2.4032 3.77475 2.15798 3.82426 1.90049 3.82426C 1.63074 3.82426 1.38552 3.77475 1.1403 3.67574C 0.919594 3.57673 0.71115 3.44059 0.539493 3.26733C 0.367835 3.09406 0.232963 2.89604 0.134874 2.66089C 0.0490449 2.42574 -7.48366e-07 2.17822 -7.48366e-07 1.90594Z"/>
<path id="path8_fill" d="M 11.3049 6.21287C 11.3049 6.0396 11.2926 5.85396 11.2681 5.68069C 11.2435 4.88861 11.1087 4.14604 10.8635 3.45297C 10.6182 2.7599 10.2627 2.15347 9.79672 1.64604C 9.3308 1.12624 8.76678 0.730198 8.09241 0.445545C 7.43031 0.148515 6.65785 -7.55386e-07 5.79956 -7.55386e-07C 4.92901 -7.55386e-07 4.1443 0.148516 3.43314 0.457922C 2.72199 0.767327 2.10893 1.18812 1.60622 1.7203C 1.09125 2.25247 0.69889 2.87129 0.416882 3.58911C 0.134874 4.30693 -1.82705e-10 5.07426 -1.82705e-10 5.89109C -1.82705e-10 6.70792 0.134874 7.47525 0.392359 8.20545C 0.662106 8.93564 1.0422 9.56683 1.55718 10.1114C 2.07215 10.6559 2.69747 11.0891 3.44541 11.4109C 4.19334 11.7203 5.03937 11.8812 5.99574 11.8812C 6.51071 11.8812 6.95212 11.8564 7.33222 11.7946C 7.71231 11.7451 8.08015 11.6584 8.4112 11.547C 8.75452 11.4356 9.08557 11.2871 9.41663 11.1139C 9.75994 10.9406 10.1278 10.7178 10.5324 10.4703L 9.36758 8.26733C 9.1101 8.36634 8.84035 8.46535 8.59512 8.55198C 8.33764 8.63861 8.08015 8.71287 7.8104 8.78713C 7.54066 8.84901 7.25865 8.91089 6.96438 8.94802C 6.68237 8.98515 6.37584 8.99753 6.05705 8.99753C 5.73826 8.99753 5.41946 8.9604 5.11293 8.87376C 4.8064 8.78713 4.51213 8.66337 4.26691 8.50248C 4.00942 8.34158 3.78872 8.13119 3.59254 7.89604C 3.40862 7.64852 3.27375 7.36386 3.20018 7.04208L 3.1634 6.70792L 11.2926 6.70792C 11.3171 6.55941 11.3171 6.38614 11.3049 6.21287ZM 3.27375 4.4802C 3.33505 4.24505 3.42088 4.02228 3.5435 3.79951C 3.66611 3.57673 3.81324 3.39109 3.99716 3.2302C 4.19334 3.05693 4.4263 2.92079 4.69605 2.83416C 4.97806 2.73515 5.32137 2.68564 5.71373 2.68564C 6.09383 2.68564 6.40036 2.73515 6.64559 2.83416C 6.90307 2.93317 7.11151 3.05693 7.27091 3.21782C 7.43031 3.37871 7.56518 3.57673 7.65101 3.78713C 7.7491 3.99752 7.8104 4.23267 7.85945 4.4802L 3.27375 4.4802L 3.27375 4.4802Z"/>
</defs>
</svg>
