<svg xmlns="http://www.w3.org/2000/svg" viewBox="0 0 122.28 32"><title>HUUB</title><path d="M67.8,29.28a.07.07,0,0,1,.08-.07h1.54a.07.07,0,0,1,.07.07v.22a.07.07,0,0,1-.07.07H68.2v.79h1a.07.07,0,0,1,.07.07v.22a.07.07,0,0,1-.07.07h-1v.83h1.22a.07.07,0,0,1,.07.07v.21a.08.08,0,0,1-.07.08H67.88a.08.08,0,0,1-.08-.08Zm2.3,0a.06.06,0,0,1,.06-.1h.28a.07.07,0,0,1,.06,0l.85,1.91h0l.85-1.91a.07.07,0,0,1,.06,0h.28a.07.07,0,0,1,.06.1L71.44,31.9a.07.07,0,0,1-.07,0h0a.08.08,0,0,1-.07,0Zm4.46-.14a1.39,1.39,0,1,1,0,2.77,1.39,1.39,0,0,1,0-2.77Zm0,2.39a1,1,0,1,0-1-1A1,1,0,0,0,74.56,31.56Zm2.32-2.28a.07.07,0,0,1,.08-.07h.25a.07.07,0,0,1,.07.07v2.27h1a.07.07,0,0,1,.07.07v.21a.08.08,0,0,1-.07.08H77a.08.08,0,0,1-.08-.08Zm1.64,0a.06.06,0,0,1,.06-.1h.27a.07.07,0,0,1,.07,0l.85,1.91h0l.85-1.91a.07.07,0,0,1,.06,0H81a.07.07,0,0,1,.06.1L79.86,31.9a.08.08,0,0,1-.07,0h0a.08.08,0,0,1-.07,0Zm3.29,0a.08.08,0,0,1,.08-.07h1.54a.07.07,0,0,1,.07.07v.22a.07.07,0,0,1-.07.07H82.21v.79h1a.07.07,0,0,1,.07.07v.22a.07.07,0,0,1-.07.07h-1v.83h1.22a.07.07,0,0,1,.07.07v.21a.08.08,0,0,1-.07.08H81.89a.09.09,0,0,1-.08-.08Zm4.42,1.33-.9-1.29a.07.07,0,0,1,.06-.11h.28a.09.09,0,0,1,.06,0l.7,1,.7-1a.09.09,0,0,1,.06,0h.29a.07.07,0,0,1,.06.11l-.91,1.28v1.23a.09.09,0,0,1-.08.08H86.3a.08.08,0,0,1-.07-.08Zm3.2-1.44a1.39,1.39,0,1,1,0,2.77,1.39,1.39,0,0,1,0-2.77Zm0,2.39a1,1,0,1,0-1-1A1,1,0,0,0,89.43,31.56Zm2.29-2.28a.07.07,0,0,1,.07-.07h.26a.07.07,0,0,1,.07.07v1.59a.65.65,0,1,0,1.29,0v-1.6a.07.07,0,0,1,.07-.07h.26a.07.07,0,0,1,.07.07V30.9a1,1,0,0,1-2.09,0Zm3.19,0a.07.07,0,0,1,.07-.07h1a.83.83,0,0,1,.84.82.86.86,0,0,1-.57.79l.53,1a.08.08,0,0,1-.07.12h-.3a.07.07,0,0,1-.06,0l-.51-1h-.58v1a.09.09,0,0,1-.08.08H95a.08.08,0,0,1-.07-.08ZM96,30.52a.47.47,0,1,0,0-.94h-.68v.94Zm3.09-1.24a.07.07,0,0,1,.07-.07H100a.74.74,0,0,1,.8.71.71.71,0,0,1-.4.61.71.71,0,0,1,.49.63.78.78,0,0,1-.84.75h-.91a.08.08,0,0,1-.07-.08Zm1,2.27a.41.41,0,0,0,.42-.42.45.45,0,0,0-.48-.4h-.52v.82ZM100,30.38a.39.39,0,0,0,.4-.41.37.37,0,0,0-.4-.4h-.52v.81Zm1.87-1.1a.07.07,0,0,1,.07-.07h1a.83.83,0,0,1,.84.82.87.87,0,0,1-.57.79l.52,1a.08.08,0,0,1-.06.12h-.3a.07.07,0,0,1-.06,0l-.51-1h-.59v1a.08.08,0,0,1-.07.08h-.25a.08.08,0,0,1-.07-.08ZM103,30.52a.47.47,0,1,0,0-.94h-.69v.94Zm1.49,1.29,1.18-2.6a.1.1,0,0,1,.07,0h0a.08.08,0,0,1,.06,0l1.18,2.6a.07.07,0,0,1-.07.1h-.24a.1.1,0,0,1-.09-.06l-.24-.53h-1.26c-.08.18-.16.35-.23.53a.12.12,0,0,1-.09.06h-.24A.07.07,0,0,1,104.45,31.81Zm1.74-.82-.47-1.06h0L105.23,31Zm1.56-1.75a.07.07,0,0,1,.07-.07h.09l1.68,1.93h0V29.28a.07.07,0,0,1,.07-.07h.25a.07.07,0,0,1,.07.07v2.59a.07.07,0,0,1-.07.07h-.1l-1.67-2h0v1.87a.08.08,0,0,1-.07.08h-.24a.08.08,0,0,1-.07-.08Zm3.36,0a.07.07,0,0,1,.07-.07h.89a1.35,1.35,0,1,1,0,2.7h-.89a.08.08,0,0,1-.07-.08Zm.9,2.26a1,1,0,0,0,1-1,.94.94,0,0,0-1-1h-.5v2ZM119.5,0H0V32H66V29.22H2.78V2.78H119.5V29.22H115V32h7.3V0Zm-6.1,16a5,5,0,0,0-3.47-8.7H97.59v7.31H84.88V7.3H82.1V16a5.92,5.92,0,0,1-11.83,0V7.3H67.49v7.31H54.79V7.3H52V16a5.92,5.92,0,0,1-11.83,0V7.3H37.4v7.31H24.7V7.3H21.91v7.31H10.09V7.3H7.3V24.7h2.79V17.39H21.91V24.7H24.7V17.39H37.52a8.68,8.68,0,0,0,17.15,0H67.61a8.68,8.68,0,0,0,17.15,0H97.59V24.7h12.34A5,5,0,0,0,113.4,16Zm-3.72,5.76h-9.31V17.35h9.31a2.21,2.21,0,0,1,0,4.41Zm0-7.11h-9.31v-4.4h9.31a2.2,2.2,0,0,1,0,4.4Zm6.51-9.52a.66.66,0,0,1,.65.66.65.65,0,1,1-1.3,0A.66.66,0,0,1,116.19,5.13Zm0,1.17a.51.51,0,1,0-.51-.51A.51.51,0,0,0,116.19,6.3ZM116,5.49s0,0,0,0h.28a.23.23,0,0,1,.23.23.21.21,0,0,1-.13.2l.08.19a0,0,0,0,1,0,0h-.1s0,0,0,0l-.08-.21h-.1v.2a0,0,0,0,1,0,0H116a0,0,0,0,1,0,0Zm.29.27a.08.08,0,0,0,.08-.08.07.07,0,0,0-.08-.07h-.14v.15Z" fill="#fff"></path></svg>