<svg xmlns="http://www.w3.org/2000/svg" width="400" height="100" viewBox="0 0 400 100">
  <title>OutSystems-logo-digital-2018-main-color</title>
  <g>
    <path d="M33.292,51.625a13.691,13.691,0,0,0,27.239,0,12.278,12.278,0,0,0,.066-1.4,13.685,13.685,0,1,0-27.369,0,12.755,12.755,0,0,0,.064,1.4M10,50A36.913,36.913,0,1,1,46.912,86.912,36.916,36.916,0,0,1,10,50" fill="#ff2400"/>
    <path d="M129.242,49.75c0,11.222-7.772,16.123-15.112,16.123-8.219,0-14.55-6.015-14.55-15.611,0-10.159,6.645-16.123,15.048-16.123,8.717,0,14.614,6.331,14.614,15.611m-24.078.316c0,6.646,3.827,11.666,9.214,11.666,5.27,0,9.216-4.956,9.216-11.8,0-5.138-2.57-11.665-9.1-11.665s-9.333,6.029-9.333,11.8" fill="#333"/>
    <path d="M161.607,56.907c0,3.134.066,5.9.248,8.285h-4.888l-.314-4.955h-.132a11.414,11.414,0,0,1-10.041,5.65c-4.772,0-10.473-2.635-10.473-13.291V34.821h5.518V51.638c0,5.768,1.756,9.66,6.778,9.66a7.754,7.754,0,0,0,7.772-7.838V34.821h5.519V56.907Z" fill="#333"/>
    <path d="M189.906,59.542a14.463,14.463,0,0,0,7.276,2.19c4.011,0,5.9-2.006,5.9-4.51,0-2.634-1.573-4.076-5.65-5.583-5.452-1.94-8.021-4.956-8.021-8.587,0-4.889,3.944-8.9,10.473-8.9a15.1,15.1,0,0,1,7.459,1.887l-1.378,4.012A11.857,11.857,0,0,0,199.75,38.3c-3.263,0-5.085,1.887-5.085,4.142,0,2.5,1.822,3.644,5.768,5.138,5.268,2,7.969,4.64,7.969,9.163,0,5.335-4.142,9.161-11.352,9.161a17.287,17.287,0,0,1-8.533-2.135Z" fill="#333"/>
    <path d="M243.846,59.542a14.5,14.5,0,0,0,7.275,2.19c4.011,0,5.9-2.006,5.9-4.51,0-2.634-1.572-4.076-5.65-5.583-5.451-1.94-8.021-4.956-8.021-8.587,0-4.889,3.945-8.9,10.473-8.9a15.089,15.089,0,0,1,7.458,1.887L259.9,40.051a11.865,11.865,0,0,0-6.215-1.756c-3.263,0-5.084,1.887-5.084,4.142,0,2.5,1.821,3.644,5.767,5.138,5.269,2,7.969,4.64,7.969,9.163,0,5.335-4.142,9.161-11.352,9.161a17.29,17.29,0,0,1-8.533-2.135Z" fill="#333"/>
    <path d="M320.029,43.039c0-3.133-.065-5.7-.248-8.217H324.6l.248,4.888h.185a10.451,10.451,0,0,1,9.529-5.584,8.954,8.954,0,0,1,8.587,6.083h.13a12.537,12.537,0,0,1,3.381-3.946,10.388,10.388,0,0,1,6.712-2.137c4.011,0,9.976,2.636,9.976,13.174V65.179h-5.387V47.994c0-5.832-2.138-9.345-6.582-9.345a7.153,7.153,0,0,0-6.527,5.02,9.136,9.136,0,0,0-.433,2.766V65.192h-5.387V47c0-4.823-2.137-8.336-6.331-8.336-3.447,0-5.965,2.766-6.842,5.517a7.579,7.579,0,0,0-.433,2.7V65.192h-5.388V43.039Z" fill="#333"/>
    <path d="M371.5,59.542a14.5,14.5,0,0,0,7.276,2.19c4.009,0,5.9-2.006,5.9-4.51,0-2.634-1.571-4.076-5.649-5.583-5.452-1.94-8.023-4.956-8.023-8.587,0-4.889,3.946-8.9,10.475-8.9a15.089,15.089,0,0,1,7.458,1.887l-1.377,4.012a11.857,11.857,0,0,0-6.213-1.756c-3.264,0-5.085,1.887-5.085,4.142,0,2.5,1.821,3.644,5.767,5.138,5.27,2,7.97,4.64,7.97,9.163,0,5.335-4.144,9.161-11.352,9.161a17.284,17.284,0,0,1-8.533-2.135Z" fill="#333"/>
    <path d="M234.041,34.742l-6.016,17.8c-.747,2.189-1.378,4.745-1.94,6.318h-.132c-.5-1.573-1.257-4.195-1.94-6.2l-6.645-17.918H211.35l11.222,28.012a5.082,5.082,0,0,1,.38,1.468,4.018,4.018,0,0,1-.433,1.325,16.824,16.824,0,0,1-4.64,6.147,14.793,14.793,0,0,1-4.824,2.7l1.494,4.614a15.044,15.044,0,0,0,6.647-3.552c3.762-3.264,6.462-8.639,10.407-19.046l8.284-21.681h-5.846Z" fill="#333"/>
    <path d="M313,51a19.973,19.973,0,0,0,.183-2.583c0-5.6-2.635-14.339-12.571-14.339-8.861,0-14.274,7.236-14.274,16.411s5.6,15.4,14.956,15.4a23.167,23.167,0,0,0,10.014-2.19l-1.375-4.207c-4.627,1.887-8.089,2.254-10.671,1.77a10.636,10.636,0,0,1-3-1.127c-4.09-2.5-4.589-7.8-4.641-8.926,0-.079-.012-.211-.012-.211Zm-12.82-12.924c6.226,0,7.733,5.453,7.668,8.992H291.69c.445-3.539,2.9-8.992,8.494-8.992" fill="#333"/>
    <path d="M183.1,59.6a7.21,7.21,0,0,1-3.422,1.363c-1.913-.026-3.21-1.35-3.21-5.06V38.806h7.863V34.874h-7.863V24.06L170.7,28.175V55.584c0,3.579.734,6.266,2.307,7.9a6.932,6.932,0,0,0,3.185,1.966,8.879,8.879,0,0,0,8.272-1.652Z" fill="#333"/>
    <path d="M281.676,59.6a7.21,7.21,0,0,1-3.422,1.363c-1.914-.026-3.212-1.35-3.212-5.06V38.806h7.865V34.874h-7.865V24.06l-5.767,4.115V55.584c0,3.579.734,6.266,2.307,7.9a6.927,6.927,0,0,0,3.185,1.966,8.879,8.879,0,0,0,8.272-1.652Z" fill="#333"/>
  </g>
</svg>
