<?xml version="1.0" encoding="UTF-8" standalone="no"?>
<svg
   xmlns:dc="http://purl.org/dc/elements/1.1/"
   xmlns:cc="http://creativecommons.org/ns#"
   xmlns:rdf="http://www.w3.org/1999/02/22-rdf-syntax-ns#"
   xmlns:svg="http://www.w3.org/2000/svg"
   xmlns="http://www.w3.org/2000/svg"
   viewBox="0 0 257.33334 257.33334"
   height="257.33334"
   width="257.33334"
   xml:space="preserve"
   id="svg2"
   version="1.1"><metadata
     id="metadata8"><rdf:RDF><cc:Work
         rdf:about=""><dc:format>image/svg+xml</dc:format><dc:type
           rdf:resource="http://purl.org/dc/dcmitype/StillImage" /></cc:Work></rdf:RDF></metadata><defs
     id="defs6" /><g
     transform="matrix(1.3333333,0,0,-1.3333333,0,257.33333)"
     id="g10"><g
       transform="scale(0.1)"
       id="g12"><path
         id="path14"
         style="fill:#ffffff;fill-opacity:1;fill-rule:evenodd;stroke:none"
         d="M 0,1927.56 H 1927.56 V 0 H 0 v 1927.56" /><path
         id="path16"
         style="fill:#1c4e9d;fill-opacity:1;fill-rule:evenodd;stroke:none"
         d="m 271.711,765.262 -22.965,55.945 -17.457,-55.945 z" /><path
         id="path18"
         style="fill:#1c4e9d;fill-opacity:1;fill-rule:evenodd;stroke:none"
         d="M 978.102,765.262 971.254,878.684 937.676,765.262 Z" /><path
         id="path20"
         style="fill:#1c4e9d;fill-opacity:1;fill-rule:evenodd;stroke:none"
         d="M 570.359,975.023 V 1306.4 H 187.414 V 971.273 l 12.82,42.717 2.946,9.8 H 213.41 295.465 314 l -5.348,-17.74 c -8.445,-27.921 -20.754,-68.702 -34.101,-112.984 l 125.613,126.654 4.031,4.07 h 5.743 100.777 34.894 L 520.105,999.973 346.176,837.484 380.004,765.262 h 127.082 l 63.273,209.761" /><path
         id="path22"
         style="fill:#1c4e9d;fill-opacity:1;fill-rule:evenodd;stroke:none"
         d="m 611.465,1306.4 v -282.58 c 26.695,0 77.16,0 77.324,0 59.41,0.72 120.84,1.47 152.207,-35.761 17.863,-21.2 22.942,-50.957 15.547,-90.981 -6.797,-36.805 -39.207,-122.367 -192.906,-122.199 l -49.973,-0.016 -2.199,-7.359 v -2.242 h 229.953 l 76.227,248.848 2.976,9.73 h 10.18 63.605 V 1306.4 H 611.465" /><path
         id="path24"
         style="fill:#1c4e9d;fill-opacity:1;fill-rule:evenodd;stroke:none"
         d="m 1201.38,765.262 30.98,104.199 -67.34,-104.199 z" /><path
         id="path26"
         style="fill:#1c4e9d;fill-opacity:1;fill-rule:evenodd;stroke:none"
         d="m 1308.95,765.262 h 43.8 c -0.09,19.406 2.91,41.676 10.69,67.246 15.4,50.664 34.15,88.609 55.02,117.043 V 1306.4 h -382.95 v -282.56 h 14.27 12.5 l 1.19,-12.43 c 0.61,-6.22 11.98,-125.883 9.15,-239.422 26.66,54.297 73.35,137.34 151.74,246.132 l 4.12,5.72 h 7.05 120.24 17.61 l -4.25,-17.09 -60.18,-241.488" /><path
         id="path28"
         style="fill:#1c4e9d;fill-opacity:1;fill-rule:evenodd;stroke:none"
         d="M 1459.57,1306.4 V 992.246 c 42.5,32.624 89.77,39.304 134.5,39.304 57.15,0 102.15,-18.96 126.7,-53.382 18.89,-26.457 23.61,-59.379 12.96,-90.316 l -3.19,-9.297 -9.84,0.008 -75.21,0.089 -22.01,0.036 9.59,19.628 c 0.18,0.493 0.47,1.832 0.67,2.735 0.29,1.32 0.62,2.816 1.08,4.367 3.93,13.207 3.55,23.277 -1.15,29.91 -6.56,9.238 -22.96,14.738 -47.4,15.899 -55.67,2.625 -91.87,-35.739 -117.39,-124.383 -5.17,-17.938 -8.27,-34.196 -9.31,-48.571 v -13.011 h 133.98 l 0.52,1.652 h -62.92 -18.7 l 5.56,17.856 17.26,55.355 3.01,9.672 h 10.13 155.09 18.15 l -4.91,-17.477 -18.81,-67.058 h 144.59 V 1306.4 h -382.95" /><path
         id="path30"
         style="fill:#1c4e9d;fill-opacity:1;fill-rule:evenodd;stroke:none"
         d="m 1201.38,765.262 30.98,104.199 -67.34,-104.199 z" /><path
         id="path32"
         style="fill:#1c4e9d;fill-opacity:1;fill-rule:evenodd;stroke:none"
         d="m 1355.77,1023.84 h -127.29 l -4.12,-5.72 c -78.39,-108.792 -125.08,-191.835 -151.74,-246.132 2.83,113.539 -8.54,233.202 -9.15,239.422 l -1.19,12.43 h -12.5 -118.979 -10.18 l -2.976,-9.73 -112.067,-365.833 -5.441,-17.797 h 18.605 68.75 10.281 l 2.911,9.86 70.57,238.344 14.207,-235.266 0.781,-12.938 h 12.961 71.247 7.48 l 4.08,6.293 150.35,232.688 -65.79,-221.289 -5.27,-17.692 h 18.46 84.85 10.76 l 2.59,10.438 91.17,365.832 4.25,17.09 h -17.61" /><path
         id="path34"
         style="fill:#ffffff;fill-opacity:1;fill-rule:evenodd;stroke:none"
         d="m 1264.61,644.246 h -84.85 l 93.14,313.317 -202.45,-313.317 h -71.247 l -18.93,313.359 -92.781,-313.359 h -68.75 l 112.059,365.824 h 118.979 c 0,0 18.17,-187.769 4.22,-316.488 0,0 35.4,113.703 181.53,316.488 h 120.24 l -91.16,-365.824" /><path
         id="path36"
         style="fill:#1c4e9d;fill-opacity:1;fill-rule:evenodd;stroke:none"
         d="m 1720.77,978.168 c -24.55,34.422 -69.55,53.382 -126.7,53.382 -84.12,0 -177.3,-23.64 -230.63,-199.042 -23.15,-76.11 -4.63,-123.633 14.99,-150.094 33.47,-45.164 91.57,-61.254 134.78,-61.254 46.19,0 118.94,7.547 143.52,17.285 l 6.34,2.512 1.83,6.563 51.84,184.8 4.91,17.477 h -18.15 -155.09 -10.13 l -3.01,-9.672 -17.26,-55.355 -5.56,-17.856 h 18.7 62.92 l -19.19,-60.5 c -3.79,-1.555 -15.33,-4.82 -45.79,-4.914 -27.4,-0.094 -46.87,7.238 -57.87,21.801 -15.24,20.172 -16.04,55.976 -2.34,103.543 25.52,88.644 61.72,127.008 117.39,124.383 24.44,-1.161 40.84,-6.661 47.4,-15.899 4.7,-6.633 5.08,-16.703 1.15,-29.91 -0.46,-1.551 -0.79,-3.047 -1.08,-4.367 -0.2,-0.903 -0.49,-2.242 -0.67,-2.735 l -9.59,-19.628 22.01,-0.036 75.21,-0.089 9.84,-0.008 3.19,9.297 c 10.65,30.937 5.93,63.859 -12.96,90.316" /><path
         id="path38"
         style="fill:#ffffff;fill-opacity:1;fill-rule:evenodd;stroke:none"
         d="m 1720.71,892.328 -75.2,0.094 c 1.22,2.512 1.64,6.156 2.5,9.07 13,43.625 -13.83,61.246 -61.09,63.477 -69.78,3.293 -107.53,-51.867 -131.27,-134.317 -25.6,-88.898 -4.06,-143.179 73.49,-142.914 61.63,0.203 58.34,12.899 58.34,12.899 l 25.4,80.031 h -81.73 l 17.26,55.367 h 155.09 l -51.84,-184.793 c -20.72,-8.219 -89.53,-16.332 -138.45,-16.332 -73.63,0 -180.57,49.063 -136.61,193.594 52.58,172.926 143.84,189.286 217.47,189.286 107.61,0 145.94,-69.407 126.64,-125.462" /><path
         id="path40"
         style="fill:#1c4e9d;fill-opacity:1;fill-rule:evenodd;stroke:none"
         d="M 545.609,1023.79 H 404.195 l -4.031,-4.07 -125.613,-126.654 c 13.347,44.282 25.656,85.063 34.101,112.984 L 314,1023.79 H 295.465 213.41 203.18 l -2.946,-9.8 L 90.3672,647.996 85.0391,630.281 h 18.4999 82.063 11.152 l 2.316,10.91 c 1.321,5.309 24.871,83.786 50.832,170.059 l 69.594,-172.363 3.473,-8.606 h 9.281 89.355 21.641 l -9.176,19.598 -87.894,187.605 173.929,162.489 25.504,23.817" /><path
         id="path42"
         style="fill:#ffffff;fill-opacity:1;fill-rule:evenodd;stroke:none"
         d="M 185.602,644.039 H 103.539 L 213.41,1010.03 h 82.055 c 0,0 -108.277,-358.483 -109.863,-365.991" /><path
         id="path44"
         style="fill:#ffffff;fill-opacity:1;fill-rule:evenodd;stroke:none"
         d="m 249.664,848.359 h -0.066 l 160.34,161.671 H 510.715 L 329.469,840.707 421.605,644.039 H 332.25 l -82.637,204.688 0.051,-0.368" /><path
         id="path46"
         style="fill:#1c4e9d;fill-opacity:1;fill-rule:evenodd;stroke:none"
         d="m 840.996,988.059 c -31.367,37.231 -92.797,36.481 -152.207,35.761 -0.223,0 -93.488,0 -93.488,0 h -10.227 l -2.945,-9.79 -110.399,-366.007 -5.347,-17.738 h 18.519 75.282 10.242 l 2.933,9.824 40.305,134.754 49.973,0.016 c 153.699,-0.168 186.109,85.394 192.906,122.199 7.395,40.024 2.316,69.781 -15.547,90.981" /><path
         id="path48"
         style="fill:#ffffff;fill-opacity:1;fill-rule:evenodd;stroke:none"
         d="M 843.008,899.582 C 832.098,840.539 780.504,788.504 663.637,788.645 L 603.41,788.617 560.184,644.051 h -75.282 l 110.399,366.009 h 93.265 c 84.383,1.02 175.286,2.31 154.442,-110.478" /><path
         id="path50"
         style="fill:#1c4e9d;fill-opacity:1;fill-rule:evenodd;stroke:none"
         d="m 617.641,842.363 c 27.191,0 47.058,-0.425 65.355,-0.09 55.008,1 71.863,20.016 84.262,57.309 21.515,64.707 -33.551,57.902 -116.074,57.813 L 617.641,842.363" /></g></g></svg>