<?xml version="1.0" encoding="utf-8"?>
<!-- Generator: Adobe Illustrator 13.0.1, SVG Export Plug-In  -->
<!DOCTYPE svg PUBLIC "-//W3C//DTD SVG 1.1//EN" "http://www.w3.org/Graphics/SVG/1.1/DTD/svg11.dtd" [
	<!ENTITY ns_flows "http://ns.adobe.com/Flows/1.0/">
]>
<svg version="1.1"
	 xmlns="http://www.w3.org/2000/svg" xmlns:xlink="http://www.w3.org/1999/xlink" xmlns:a="http://ns.adobe.com/AdobeSVGViewerExtensions/3.0/"
	 x="0px" y="0px" width="316px" height="64px" viewBox="-0.482 -0.612 316 64" enable-background="new -0.482 -0.612 316 64"
	 xml:space="preserve">
<defs>
</defs>
<path fill="#104277" d="M275.392,11.577c-7.244,0-11.769,4.024-13.952,12.778l-1.336,5.333c-2.183,8.753,0.312,12.879,7.554,12.879
	h15.234c2.313,0,3.421,1.207,2.945,3.119l-0.752,3.018c-0.478,1.912-2.188,3.119-4.501,3.119h-25.682l-1.856,7.445h34.911
	c8.049,0,12.952-3.52,14.708-10.564l2.57-10.258c1.757-7.042-1.391-10.564-9.439-10.564h-14.528c-2.111,0-2.894-0.905-2.416-2.817
	l0.795-3.226c0.479-1.911,1.711-2.817,3.822-2.817h26.486l1.855-7.444H275.392z"/>
<path fill="#104277" d="M128.695,11.577c-7.245,0-11.77,4.024-13.952,12.778l-1.337,5.333c-2.182,8.753,0.312,12.879,7.555,12.879
	h15.233c2.315,0,3.422,1.207,2.946,3.119l-0.752,3.018c-0.477,1.912-2.188,3.119-4.501,3.119h-25.681l-1.857,7.445h34.91
	c8.05,0,12.954-3.52,14.708-10.564l2.572-10.258c1.757-7.042-1.391-10.564-9.44-10.564h-14.528c-2.112,0-2.895-0.905-2.416-2.817
	l0.795-3.226c0.479-1.911,1.711-2.817,3.822-2.817h26.486l1.855-7.444H128.695z"/>
<path fill="#104277" d="M173.344,10.035l-8.938,35.851c-2.311,9.258,1.088,13.382,8.134,13.382h18.226l1.855-7.445h-7.388
	c-3.119,0-4.099-0.904-3.122-4.83l6.976-27.972h10.001l1.856-7.444h-10.001L193.831,0L173.344,10.035z"/>
<polygon fill="#104277" points="27.714,59.268 64.079,1.542 54.256,1.542 26.326,47.485 26.234,47.485 20.465,1.542 0,1.542 
	8.045,59.268 "/>
<path fill="#104277" d="M75.651,22.443c0.626-2.516,1.557-3.422,3.87-3.422h7.312c2.315,0,3.422,1.207,2.945,3.119l-3.134,12.573
	H72.59L75.651,22.443z M72.248,11.577c-8.047,0-12.851,3.924-15.032,12.676l-5.571,22.339c-2.182,8.752,0.663,12.676,8.713,12.676
	h38.145l1.858-7.445H72.053c-2.315,0-3.422-1.207-2.946-3.119l1.628-6.543h32.036l4.465-17.907
	c2.182-8.752-0.664-12.676-8.713-12.676H72.248z"/>
<path fill="#104277" d="M215.796,48.704l2.557-10.258c0.478-1.912,2.188-3.117,4.501-3.117h10.323l-4.11,16.494h-10.326
	C216.427,51.823,215.32,50.616,215.796,48.704 M208.697,11.577l-1.854,7.444l26.682,0.001c2.315,0,3.422,1.206,2.946,3.119
	l-1.438,5.74h-19.951c-8.05,0-12.953,3.519-14.707,10.564l-2.571,10.258c-1.757,7.043,1.39,10.564,9.439,10.564h37.951l8.738-35.015
	c2.181-8.752-0.665-12.676-8.713-12.676H208.697z"/>
<g>
	<defs>
		<path id="SVGID_1_" d="M307.375,54.026h0.905c0.604,0,0.835,0.383,0.835,0.756c0,0.371-0.241,0.754-0.846,0.754h-0.895V54.026z
			 M306.901,53.543v3.953h0.474v-1.479h0.895h0.081l0.664,1.479h0.544l-0.726-1.578c0.504-0.192,0.765-0.635,0.765-1.127
			c0-0.654-0.442-1.248-1.317-1.248H306.901z M304.909,55.545c0-1.811,1.409-3.279,3.21-3.279s3.209,1.469,3.209,3.279
			s-1.408,3.271-3.209,3.271S304.909,57.356,304.909,55.545 M304.426,55.545c0,2.053,1.64,3.723,3.692,3.723
			c2.054,0,3.692-1.67,3.692-3.723s-1.639-3.723-3.692-3.723C306.066,51.823,304.426,53.493,304.426,55.545"/>
	</defs>
	<use xlink:href="#SVGID_1_"  overflow="visible" fill="#104277"/>
	<clipPath id="SVGID_2_">
		<use xlink:href="#SVGID_1_"  overflow="visible"/>
	</clipPath>
	
		<rect x="303.06" y="50.475" transform="matrix(-0.866 0.5 -0.5 -0.866 602.7299 -50.4105)" clip-path="url(#SVGID_2_)" fill="#104277" width="10.117" height="10.14"/>
</g>
</svg>
