<?xml version="1.0" encoding="utf-8"?>
<!-- Generator: Adobe Illustrator 19.0.0, SVG Export Plug-In . SVG Version: 6.00 Build 0)  -->
<svg version="1.1" id="Camada_1" xmlns="http://www.w3.org/2000/svg" xmlns:xlink="http://www.w3.org/1999/xlink" x="0px" y="0px"
	 viewBox="0 0 841.9 1190.6" style="enable-background:new 0 0 841.9 1190.6;" xml:space="preserve">
<style type="text/css">
	.st0{fill:#04381C;stroke:#04381C;stroke-width:2;stroke-miterlimit:10;}
	.st1{fill:none;stroke:#04381C;stroke-width:5;stroke-miterlimit:10;}
	.st2{fill:none;stroke:#04381C;stroke-width:2;stroke-miterlimit:10;}
	.st3{fill:none;stroke:#04381C;stroke-width:1.5;stroke-miterlimit:10;}
	.st4{fill:none;stroke:#04381C;stroke-width:3.5;stroke-miterlimit:10;}
</style>
<g id="XMLID_15_">
	<g id="XMLID_148_">
		<path id="XMLID_149_" class="st0" d="M-516-771.2c0,12-9.9,17.5-22.3,17.5v-5.8c9.2,0,16.5-3.6,16.5-11.7v-17.1h-10.9v-5.8h16.8
			V-771.2z"/>
		<path id="XMLID_151_" class="st0" d="M-487.4-788.6c3.7-3.8,8.9-6.1,14.6-6.1c5.7,0,10.9,2.4,14.6,6.1c3.6,3.8,6,8.9,6,14.6
			c0,5.7-2.4,10.9-6,14.6c-3.8,3.8-8.9,6.1-14.6,6.1c-5.7,0-10.9-2.3-14.6-6.1c-3.6-3.8-6-8.9-6-14.6
			C-493.4-779.7-491-784.8-487.4-788.6z M-462.4-784.4c-2.7-2.7-6.5-4.4-10.5-4.4c-4,0-7.7,1.7-10.3,4.4c-2.7,2.7-4.3,6.4-4.3,10.5
			c0,4.1,1.7,7.8,4.3,10.5c2.7,2.7,6.4,4.4,10.3,4.4c4,0,7.7-1.7,10.5-4.4c2.6-2.7,4.3-6.3,4.3-10.5S-459.8-781.7-462.4-784.4z"/>
		<path id="XMLID_154_" class="st0" d="M-411.4-794.1c5.1,0,8.3,2.9,9.8,6.6c1.6,4,1.1,8.6-2.9,11.5c4.6,2,6.3,6.2,6.3,10.1
			c0,6.1-4,12.2-11.7,12.2h-18.3v-40.4H-411.4z M-422.5-778h10.9c6.4,0,6.5-10.5,0.1-10.5h-11V-778z M-422.5-759.4h12.5
			c3.9,0,5.9-3.3,5.9-6.5c0-3.2-2-6.4-5.9-6.4h-12.5V-759.4z"/>
	</g>
	<g id="XMLID_137_">
		<path id="XMLID_138_" class="st0" d="M-520.6-727.7h-8.6v38.7h8.6v0.9c-6,0-12.1,0-18.1,0v-0.9h8.6v-38.7h-8.6v-0.8
			c6,0,12.1,0,18.1,0V-727.7z"/>
		<path id="XMLID_140_" class="st0" d="M-494.3-688v-39.7h-14v-0.9h28.8v0.9h-14v39.7H-494.3z"/>
		<path id="XMLID_142_" class="st0" d="M-464.2-713.4v-7.3c0-2,0.5-3.6,1.6-4.8c1-1.3,2.5-2.1,4.3-2.5v3.2c-1.1,0.3-1.8,0.8-2.1,1.5
			c-0.3,0.7-0.5,1.6-0.5,2.7v0.8h2.6v6.5H-464.2z"/>
		<path id="XMLID_144_" class="st0" d="M-447.6-714.3l-0.6-0.5l9.9-13.8h0.9c0,13.5,0,26.9,0,40.4h-0.9v-37.8l0.2-1.6h-0.1l-0.8,1.3
			L-447.6-714.3z"/>
		<path id="XMLID_146_" class="st0" d="M-395.8-728.5v0.9l-21.6,39.5h-1.1l21.6-39.5h-26v-0.9H-395.8z"/>
	</g>
</g>
<g id="XMLID_133_">
	
		<rect id="XMLID_136_" x="-580.8" y="-855.4" transform="matrix(-0.7071 0.7071 -0.7071 -0.7071 -1320.578 -935.3465)" class="st1" width="228.4" height="228.4"/>
</g>
<path id="XMLID_132_" class="st2" d="M-472.7-820.2"/>
<path id="XMLID_130_" class="st3" d="M-352.6-833.2c-0.1-7.2-0.1-14.5-0.2-21.7c-7.4-0.2-14.8-0.4-22.2-0.6
	C-367.5-848-360.1-840.6-352.6-833.2z"/>
<path id="XMLID_129_" class="st4" d="M-375.9-629.8c7.2-0.1,14.5-0.1,21.7-0.2c0.2-7.4,0.4-14.8,0.6-22.2
	C-361-644.7-368.5-637.3-375.9-629.8z"/>
<path id="XMLID_128_" class="st4" d="M-558.6-854.1c-7.2,0.1-14.5,0.1-21.7,0.2c-0.2,7.4-0.4,14.8-0.6,22.2
	C-573.5-839.2-566.1-846.7-558.6-854.1z"/>
<path id="XMLID_125_" class="st3" d="M-580.7-650.8c0.1,7.2,0.1,14.5,0.2,21.7c7.4,0.2,14.8,0.4,22.2,0.6
	C-565.8-635.9-573.3-643.4-580.7-650.8z"/>
</svg>
