<svg xmlns="http://www.w3.org/2000/svg" xmlns:xlink="http://www.w3.org/1999/xlink" width="96" height="28" viewBox="0 0 96 28">
    <defs>
        <path id="a" d="M0 27.897h96V0H0z"/>
    </defs>
    <g fill="none" fill-rule="evenodd">
        <path fill="#09F" d="M7.276 22.232c-.625 0-1.163-.067-1.611-.2v-1.924c.374.101.756.152 1.146.152.41 0 .712-.115.902-.344.189-.23.284-.57.284-1.018v-8.156h2.446v8.516c0 .951-.276 1.685-.826 2.201-.551.515-1.331.773-2.341.773zM18.85 17.043c0 .92-.32 1.62-.958 2.1-.639.481-1.594.722-2.866.722-.652 0-1.208-.044-1.668-.133a6.305 6.305 0 0 1-1.29-.388v-2.02c.454.213.966.392 1.535.536.57.145 1.07.217 1.503.217.887 0 1.331-.257 1.331-.769a.647.647 0 0 0-.176-.47c-.118-.12-.32-.256-.61-.408-.288-.153-.673-.33-1.154-.533-.689-.289-1.196-.556-1.519-.802a2.254 2.254 0 0 1-.706-.846c-.147-.318-.22-.709-.22-1.174 0-.797.31-1.412.926-1.848.617-.435 1.492-.653 2.625-.653 1.08 0 2.13.235 3.151.705l-.738 1.764a13.54 13.54 0 0 0-1.258-.473 3.959 3.959 0 0 0-1.195-.185c-.72 0-1.082.196-1.082.586 0 .22.116.408.348.57.233.16.742.397 1.528.712.7.284 1.213.548 1.54.794.325.246.565.53.72.85.155.32.233.702.233 1.146M23.987 19.865c-2.79 0-4.185-1.531-4.185-4.594 0-1.523.38-2.686 1.139-3.49.758-.805 1.846-1.207 3.262-1.207 1.037 0 1.967.203 2.79.609l-.721 1.892a12.342 12.342 0 0 0-1.075-.381 3.45 3.45 0 0 0-.994-.148c-1.272 0-1.907.903-1.907 2.71 0 1.753.635 2.629 1.907 2.629.47 0 .907-.063 1.307-.188a4.712 4.712 0 0 0 1.203-.59v2.092a3.918 3.918 0 0 1-1.2.521c-.402.097-.912.145-1.526.145"/>
        <mask id="b" fill="#fff">
            <use xlink:href="#a"/>
        </mask>
        <path fill="#09F" d="M70.618 19.705h2.445V7.408h-2.445zM78.93 12.313c-.518 0-.924.165-1.218.493-.294.33-.463.795-.505 1.4h3.43c-.01-.605-.167-1.07-.472-1.4-.305-.328-.716-.493-1.235-.493m.345 7.552c-1.443 0-2.571-.398-3.383-1.195-.813-.796-1.218-1.924-1.218-3.383 0-1.5.375-2.662 1.126-3.483.75-.82 1.789-1.23 3.114-1.23 1.267 0 2.253.361 2.958 1.082.705.721 1.058 1.718 1.058 2.99v1.187h-5.78c.027.694.233 1.237.618 1.627.385.39.924.585 1.619.585.54 0 1.05-.056 1.53-.169a7.618 7.618 0 0 0 1.508-.537v1.892a5.758 5.758 0 0 1-1.37.478c-.487.104-1.08.156-1.78.156M57.76 11.355c-.522-.52-1.29-.78-2.306-.78-1.765 0-2.862 1.313-2.862 1.313-.476-.876-1.384-1.314-2.725-1.314-.588 0-1.109.116-1.564.348a2.495 2.495 0 0 0-1.042.966v-1.146H44.93v8.962h2.445v-4.216c0-1.053.141-1.809.425-2.269.283-.46.737-.689 1.362-.689.465 0 .806.161 1.022.485.217.323.325.808.325 1.455v5.234h2.445v-4.497c0-.93.148-1.608.445-2.036.297-.427.744-.64 1.343-.64.465 0 .806.16 1.022.484.216.323.325.808.325 1.455v5.234h2.453V13.86c0-1.149-.26-1.984-.782-2.505M66.07 17.192c-.296.462-.695.693-1.198.693-.62 0-1.072-.208-1.358-.625-.286-.417-.43-1.107-.43-2.068v-.265c.01-.855.155-1.468.434-1.84.278-.371.719-.557 1.323-.557.518 0 .926.22 1.226.662.299.44.449 1.102.449 1.983 0 .882-.15 1.555-.445 2.017m2.04-5.39c-.6-.824-1.427-1.237-2.485-1.237-1.122 0-1.97.443-2.541 1.33V7.409H60.64v12.297h2.445v-.995c.598.764 1.424 1.146 2.477 1.146 1.063 0 1.904-.406 2.52-1.22.618-.811.927-1.957.927-3.438 0-1.437-.3-2.57-.898-3.395M89.51 10.574c-.556 0-1.07.154-1.543.461a3.36 3.36 0 0 0-1.126 1.214v-1.507h-2.333v8.962h2.445v-4.561c0-.721.218-1.282.653-1.683.436-.401 1.044-.601 1.824-.601.283 0 .524.027.722.08l.184-2.293a3.956 3.956 0 0 0-.826-.072M40.393 16.29c0 .54-.169.973-.509 1.298-.339.327-.792.49-1.359.49-.79 0-1.186-.345-1.186-1.035 0-.481.174-.838.521-1.074.347-.235.876-.363 1.587-.385l.946-.032v.738zm1.467-4.946c-.64-.524-1.563-.786-2.765-.786-1.256 0-2.4.27-3.43.81l.808 1.65c.967-.432 1.81-.648 2.525-.648.93 0 1.395.454 1.395 1.362v.393l-1.555.048c-1.34.049-2.345.299-3.01.75-.665.45-.998 1.153-.998 2.104 0 .909.247 1.609.741 2.1.494.493 1.172.738 2.032.738.701 0 1.268-.1 1.704-.301.436-.2.86-.56 1.271-1.078v1.219h2.244v-5.973c0-1.068-.32-1.864-.962-2.388zM33.38 10.574c-.556 0-1.07.154-1.543.461a3.36 3.36 0 0 0-1.126 1.214v-1.507h-2.333v8.962h2.445v-4.561c0-.721.218-1.282.653-1.683.436-.401 1.044-.601 1.824-.601.283 0 .524.027.722.08l.184-2.293a3.956 3.956 0 0 0-.826-.072M9.22 0c-.64.902-1.77 1.743-3.388 1.743 0 4.453 3.388 6.163 3.388 6.163s3.388-1.71 3.388-6.163C10.988 1.743 9.86.903 9.22 0" mask="url(#b)"/>
        <path fill="#09F" d="M14.585 1.743a10.1 10.1 0 0 1-.302 2.49H93.51v21.174H2.49V4.233h1.665a10.15 10.15 0 0 1-.3-2.49H.002v26.154h96V1.743H14.585z" mask="url(#b)"/>
    </g>
</svg>
