<?xml version="1.0" encoding="UTF-8"?>
<svg width="134px" height="27px" viewBox="0 0 134 27" version="1.1" xmlns="http://www.w3.org/2000/svg" xmlns:xlink="http://www.w3.org/1999/xlink">
    <!-- Generator: Sketch 51.3 (57544) - http://www.bohemiancoding.com/sketch -->
    <title>Brand/Logo/Talkdesk-Logo</title>
    <desc>Created with Sketch.</desc>
    <defs>
        <polygon id="path-1" points="0 0 133.999732 0 133.999732 27 0 27"></polygon>
    </defs>
    <g id="Brand/Logo/Talkdesk-Logo" stroke="none" stroke-width="1" fill="none" fill-rule="evenodd">
        <g id="Group-3">
            <mask id="mask-2" fill="white">
                <use xlink:href="#path-1"></use>
            </mask>
            <g id="Clip-2"></g>
            <path d="M107.990332,15.86385 C106.610132,15.4332 103.343212,14.7744 103.343212,13.14765 C103.343212,11.9448 104.277192,10.9296 106.255032,10.9296 C108.502212,10.9296 109.878392,11.7936 110.895452,12.8034 L113.239112,10.4976 C111.226432,8.5887 108.829172,7.7544 106.255032,7.7544 C102.968012,7.7544 99.867252,9.81855 99.867252,13.38795 C99.867252,16.63065 103.408872,17.68635 105.244672,18.36675 L108.624152,19.55475 C109.736352,20.00295 110.281732,20.56995 110.281732,21.4245 C110.281732,22.95945 108.625492,23.9166 106.382332,23.81265 C106.382332,23.81265 103.562972,23.89095 101.605232,21.94695 L99.315172,24.2001 C102.240392,27.10395 105.855712,26.99055 106.255032,26.99055 C109.844892,26.99055 113.903752,24.9669 113.903752,21.3705 C113.903752,17.64315 109.847572,16.4457 107.990332,15.86385 Z M84.233472,15.5061 L84.388912,14.70285 C84.635472,13.87125 85.100452,13.1517 85.807972,12.49965 C86.808952,11.58165 88.017632,11.11455 89.397832,11.11455 C90.646712,11.11455 91.695932,11.56275 92.608472,12.48345 C93.263732,13.1463 93.667072,13.8834 93.841272,14.73795 L93.943112,15.5061 L84.233472,15.5061 Z M89.397832,7.7463 C86.866572,7.7463 84.752052,8.65215 83.113232,10.43955 C81.478432,12.22155 80.650312,14.58945 80.650312,17.47575 L80.650312,17.61345 C80.650312,20.43765 81.470392,22.72725 83.086432,24.41745 C84.726592,26.1306 86.870592,27 89.463492,27 C92.175652,27 94.459012,26.0145 96.257292,24.06645 L94.026192,21.924 C92.475812,23.2119 91.326092,23.69925 89.463492,23.69925 C86.574452,23.69925 84.577852,22.194 84.124932,19.2051 L84.055252,18.738 L97.409692,18.738 L97.453912,18.28575 C97.488752,17.9172 97.488752,17.523 97.488752,17.13825 C97.488752,14.61105 96.732992,12.16755 95.236212,10.42065 C93.747472,8.6454 91.781692,7.7463 89.397832,7.7463 Z M68.420132,23.4576 C65.389052,23.4576 62.932832,20.8629 62.932832,17.45685 C62.932832,14.04945 65.389052,11.2887 68.420132,11.2887 C71.448532,11.2887 74.328192,13.6566 74.328192,17.064 C74.328192,20.47005 71.448532,23.4576 68.420132,23.4576 Z M74.226352,10.4085 C74.226352,10.4085 73.955672,9.87255 72.358392,8.829 C71.176512,8.14725 69.840532,7.75575 68.420132,7.75575 C63.636332,7.75575 59.761052,12.0987 59.761052,17.45685 C59.761052,22.81365 63.636332,26.99055 68.420132,26.99055 C69.761472,26.99055 71.030452,26.7165 72.162752,26.1873 C73.890012,25.26525 74.226352,24.20415 74.226352,24.20415 L74.226352,26.07525 L77.715712,26.07525 L77.715712,0 L74.226352,0 L74.226352,10.4085 Z M9.614232,23.09175 C7.525172,23.04315 6.931552,21.66075 6.931552,20.0961 L6.931552,11.1996 L11.585372,11.1996 L11.585372,7.7517 L6.931552,7.7517 L6.931552,2.36655 L3.460952,2.36655 L3.460952,7.7517 L-0.000268000007,7.7517 L-0.000268000007,11.1996 L3.460952,11.1996 L3.460952,20.0961 C3.460952,23.6547 5.303452,25.84305 7.621652,26.3007 C9.454772,26.66385 11.404472,26.1171 11.590732,26.1171 L11.590732,23.00805 C10.131472,23.1201 10.075192,23.1039 9.614232,23.09175 Z M19.066592,23.8167 C17.508172,23.7438 16.662632,22.61655 16.662632,21.39075 C16.662632,20.16495 17.809672,19.36575 19.050512,19.0053 C20.500392,18.5868 24.934452,18.27225 24.934452,18.27225 C24.934452,22.248 21.254812,23.91795 19.066592,23.8167 Z M20.374432,7.76385 C17.911512,7.87995 15.901512,8.91405 14.337732,10.6704 L16.574192,12.8142 C17.414372,12.1203 18.820032,10.90665 21.388812,11.1213 C23.183072,11.27115 24.934452,12.35925 24.934452,14.5719 L24.934452,15.1119 C24.934452,15.1119 21.561672,15.39675 18.979492,15.7275 C15.389632,16.18785 13.358192,18.2682 13.358192,21.37725 C13.358192,24.50385 15.743392,26.9946 19.397572,26.9946 C21.806892,26.9946 23.810192,25.7094 24.934452,24.2109 L24.934452,26.10495 L28.403712,26.10495 L28.403712,14.5719 C28.403712,10.87425 25.885852,7.50735 20.374432,7.76385 Z M124.613032,16.8615 L132.895572,8.6886 L127.900052,8.6886 L120.584992,15.95565 L120.584992,0 L117.115732,0 L117.115732,26.109 L120.584992,26.109 L120.584992,20.83725 L122.146092,19.29555 L129.005552,26.109 L133.999732,26.109 L124.613032,16.8615 Z M58.663592,8.6886 L53.668072,8.6886 L46.354352,15.95565 L46.354352,0 L42.883752,0 L42.883752,26.109 L46.354352,26.109 L46.354352,20.83725 L47.914112,19.29555 L54.773572,26.109 L59.769092,26.109 L50.382392,16.8615 L58.663592,8.6886 Z M38.284872,23.09175 C36.194472,23.04315 35.600852,21.66075 35.600852,20.0961 L35.600852,0 L32.130252,0 L32.130252,20.0961 C32.130252,23.65605 33.972752,25.84305 36.290952,26.3007 C38.124072,26.66385 40.008112,26.1171 40.194372,26.1171 L40.194372,23.0067 C38.735112,23.11875 38.744492,23.1039 38.284872,23.09175 Z" id="Fill-1" fill="#172241" mask="url(#mask-2)"></path>
        </g>
    </g>
</svg>